<svg width="200" height="201" viewBox="0 0 200 201" fill="none" xmlns="http://www.w3.org/2000/svg">
<rect x="0.75" y="0.902344" width="198.5" height="198.5" rx="39.25" stroke="#B8AAA7" stroke-width="1.5"/>
<mask id="path-2-outside-1_10_243" maskUnits="userSpaceOnUse" x="55" y="64.1523" width="89" height="82" fill="black">
<rect fill="white" x="55" y="64.1523" width="89" height="82"/>
<path d="M69.9189 88.8799C69.9189 85.6084 69.748 82.874 69.4062 80.6768C69.1133 78.4795 68.5518 76.7217 67.7217 75.4033C66.9404 74.085 65.8418 73.1572 64.4258 72.6201C63.0098 72.083 61.4961 71.8145 59.8848 71.8145C58.3223 71.8145 57.3701 71.8389 57.0283 71.8877L56.7354 70.5693C64.6943 68.1768 72.0918 66.9805 78.9277 66.9805C79.9531 69.5684 80.4658 72.3516 80.4658 75.3301V77.4541C83.2979 75.5498 85.9102 73.8896 88.3027 72.4736C90.6953 71.0576 93.0391 69.8613 95.334 68.8848C97.6777 67.9082 100.07 67.1758 102.512 66.6875C104.953 66.1992 107.639 65.9551 110.568 65.9551C113.205 65.9551 115.817 66.2969 118.405 66.9805C121.042 67.6641 123.386 68.8848 125.437 70.6426C127.536 72.4004 129.221 74.793 130.49 77.8203C131.809 80.8477 132.468 84.6807 132.468 89.3193V134.876C132.468 136.048 132.736 137.024 133.273 137.806C133.859 138.587 134.592 139.246 135.471 139.783C136.398 140.32 137.448 140.784 138.62 141.175C139.792 141.517 141.013 141.883 142.282 142.273L141.623 144.031C138.889 143.445 135.251 143.152 130.71 143.152C127.927 143.152 124.68 143.543 120.969 144.324L120.529 143.592C121.506 142.176 121.994 139.588 121.994 135.828V92.0293C121.994 87.9277 121.604 84.583 120.822 81.9951C120.041 79.3584 118.967 77.3076 117.6 75.8428C116.281 74.3291 114.719 73.2793 112.912 72.6934C111.154 72.1074 109.274 71.8145 107.272 71.8145C104.831 71.8145 102.536 72.0342 100.388 72.4736C98.2881 72.9131 96.1641 73.5967 94.0156 74.5244C91.916 75.4033 89.7676 76.5264 87.5703 77.8936C85.373 79.2119 83.0049 80.7744 80.4658 82.5811V133.118C80.4658 134.681 80.5879 135.95 80.832 136.927C81.0762 137.854 81.5889 138.636 82.3701 139.271C83.1514 139.905 84.25 140.467 85.666 140.955C87.082 141.443 88.9375 141.98 91.2324 142.566L90.6465 144.324C87.8145 143.934 85.3975 143.641 83.3955 143.445C81.4424 143.25 79.8555 143.152 78.6348 143.152C75.8516 143.152 72.6045 143.543 68.8936 144.324L68.4541 143.592C69.4307 142.176 69.9189 139.588 69.9189 135.828V88.8799Z"/>
</mask>
<path d="M69.9189 88.8799C69.9189 85.6084 69.748 82.874 69.4062 80.6768C69.1133 78.4795 68.5518 76.7217 67.7217 75.4033C66.9404 74.085 65.8418 73.1572 64.4258 72.6201C63.0098 72.083 61.4961 71.8145 59.8848 71.8145C58.3223 71.8145 57.3701 71.8389 57.0283 71.8877L56.7354 70.5693C64.6943 68.1768 72.0918 66.9805 78.9277 66.9805C79.9531 69.5684 80.4658 72.3516 80.4658 75.3301V77.4541C83.2979 75.5498 85.9102 73.8896 88.3027 72.4736C90.6953 71.0576 93.0391 69.8613 95.334 68.8848C97.6777 67.9082 100.07 67.1758 102.512 66.6875C104.953 66.1992 107.639 65.9551 110.568 65.9551C113.205 65.9551 115.817 66.2969 118.405 66.9805C121.042 67.6641 123.386 68.8848 125.437 70.6426C127.536 72.4004 129.221 74.793 130.49 77.8203C131.809 80.8477 132.468 84.6807 132.468 89.3193V134.876C132.468 136.048 132.736 137.024 133.273 137.806C133.859 138.587 134.592 139.246 135.471 139.783C136.398 140.32 137.448 140.784 138.62 141.175C139.792 141.517 141.013 141.883 142.282 142.273L141.623 144.031C138.889 143.445 135.251 143.152 130.71 143.152C127.927 143.152 124.68 143.543 120.969 144.324L120.529 143.592C121.506 142.176 121.994 139.588 121.994 135.828V92.0293C121.994 87.9277 121.604 84.583 120.822 81.9951C120.041 79.3584 118.967 77.3076 117.6 75.8428C116.281 74.3291 114.719 73.2793 112.912 72.6934C111.154 72.1074 109.274 71.8145 107.272 71.8145C104.831 71.8145 102.536 72.0342 100.388 72.4736C98.2881 72.9131 96.1641 73.5967 94.0156 74.5244C91.916 75.4033 89.7676 76.5264 87.5703 77.8936C85.373 79.2119 83.0049 80.7744 80.4658 82.5811V133.118C80.4658 134.681 80.5879 135.95 80.832 136.927C81.0762 137.854 81.5889 138.636 82.3701 139.271C83.1514 139.905 84.25 140.467 85.666 140.955C87.082 141.443 88.9375 141.98 91.2324 142.566L90.6465 144.324C87.8145 143.934 85.3975 143.641 83.3955 143.445C81.4424 143.25 79.8555 143.152 78.6348 143.152C75.8516 143.152 72.6045 143.543 68.8936 144.324L68.4541 143.592C69.4307 142.176 69.9189 139.588 69.9189 135.828V88.8799Z" fill="#B8AAA7"/>
<path d="M69.4062 80.6768L68.415 80.8089L68.4165 80.8197L68.4181 80.8305L69.4062 80.6768ZM67.7217 75.4033L66.8614 75.9131L66.8683 75.9247L66.8754 75.9361L67.7217 75.4033ZM57.0283 71.8877L56.0521 72.1046L56.253 73.0086L57.1697 72.8776L57.0283 71.8877ZM56.7354 70.5693L56.4475 69.6117L55.5576 69.8792L55.7592 70.7863L56.7354 70.5693ZM78.9277 66.9805L79.8574 66.6121L79.6071 65.9805H78.9277V66.9805ZM80.4658 77.4541H79.4658V79.3316L81.0238 78.2839L80.4658 77.4541ZM95.334 68.8848L94.9494 67.9617L94.9424 67.9646L95.334 68.8848ZM118.405 66.9805L118.15 67.9473L118.154 67.9485L118.405 66.9805ZM125.437 70.6426L124.786 71.4019L124.795 71.4093L125.437 70.6426ZM130.49 77.8203L129.568 78.2071L129.573 78.2196L130.49 77.8203ZM133.273 137.806L132.449 138.372L132.461 138.389L132.473 138.406L133.273 137.806ZM135.471 139.783L134.949 140.636L134.959 140.643L134.97 140.649L135.471 139.783ZM138.62 141.175L138.304 142.123L138.322 142.129L138.34 142.135L138.62 141.175ZM142.282 142.273L143.219 142.625L143.592 141.63L142.576 141.318L142.282 142.273ZM141.623 144.031L141.414 145.009L142.257 145.19L142.559 144.382L141.623 144.031ZM120.969 144.324L120.111 144.839L120.478 145.45L121.175 145.303L120.969 144.324ZM120.529 143.592L119.706 143.024L119.341 143.554L119.672 144.106L120.529 143.592ZM120.822 81.9951L119.863 82.2792L119.865 82.2841L120.822 81.9951ZM117.6 75.8428L116.846 76.4996L116.857 76.5125L116.869 76.5251L117.6 75.8428ZM112.912 72.6934L112.596 73.6421L112.604 73.6446L112.912 72.6934ZM100.388 72.4736L100.187 71.4939L100.183 71.4948L100.388 72.4736ZM94.0156 74.5244L94.4018 75.4469L94.4121 75.4425L94.0156 74.5244ZM87.5703 77.8936L88.0848 78.751L88.0917 78.7469L88.0986 78.7426L87.5703 77.8936ZM80.4658 82.5811L79.8861 81.7663L79.4658 82.0653V82.5811H80.4658ZM80.832 136.927L79.8618 137.169L79.865 137.181L80.832 136.927ZM91.2324 142.566L92.1811 142.883L92.5209 141.863L91.4798 141.597L91.2324 142.566ZM90.6465 144.324L90.5098 145.315L91.3325 145.428L91.5952 144.64L90.6465 144.324ZM83.3955 143.445L83.296 144.44L83.2984 144.441L83.3955 143.445ZM68.8936 144.324L68.0361 144.839L68.4025 145.45L69.0996 145.303L68.8936 144.324ZM68.4541 143.592L67.6309 143.024L67.2653 143.554L67.5966 144.106L68.4541 143.592ZM70.9189 88.8799C70.9189 85.5785 70.7468 82.7888 70.3944 80.523L68.4181 80.8305C68.7493 82.9593 68.9189 85.6383 68.9189 88.8799H70.9189ZM70.3975 80.5446C70.093 78.2608 69.4998 76.3505 68.5679 74.8705L66.8754 75.9361C67.6037 77.0928 68.1336 78.6981 68.415 80.8089L70.3975 80.5446ZM68.582 74.8935C67.6867 73.3828 66.411 72.3036 64.7804 71.6851L64.0711 73.5551C65.2726 74.0108 66.1942 74.7872 66.8614 75.9131L68.582 74.8935ZM64.7804 71.6851C63.244 71.1023 61.6095 70.8145 59.8848 70.8145V72.8145C61.3827 72.8145 62.7755 73.0637 64.0711 73.5551L64.7804 71.6851ZM59.8848 70.8145C58.3548 70.8145 57.3164 70.8364 56.8869 70.8977L57.1697 72.8776C57.4239 72.8413 58.2897 72.8145 59.8848 72.8145V70.8145ZM58.0045 71.6708L57.7115 70.3524L55.7592 70.7863L56.0521 72.1046L58.0045 71.6708ZM57.0232 71.527C64.9082 69.1567 72.2077 67.9805 78.9277 67.9805V65.9805C71.9759 65.9805 64.4805 67.1968 56.4475 69.6117L57.0232 71.527ZM77.9981 67.3488C78.9738 69.8115 79.4658 72.4688 79.4658 75.3301H81.4658C81.4658 72.2344 80.9324 69.3253 79.8574 66.6121L77.9981 67.3488ZM79.4658 75.3301V77.4541H81.4658V75.3301H79.4658ZM81.0238 78.2839C83.8433 76.3881 86.4392 74.7386 88.8121 73.3342L87.7934 71.6131C85.3811 73.0407 82.7524 74.7116 79.9078 76.6243L81.0238 78.2839ZM88.8121 73.3342C91.171 71.9381 93.4754 70.7624 95.7255 69.8049L94.9424 67.9646C92.6027 68.9602 90.2197 70.1771 87.7934 71.6131L88.8121 73.3342ZM95.7186 69.8078C98.0028 68.8561 100.332 68.1432 102.708 67.6681L102.316 65.7069C99.8084 66.2084 97.3527 66.9603 94.9494 67.9617L95.7186 69.8078ZM102.708 67.6681C105.075 67.1947 107.693 66.9551 110.568 66.9551V64.9551C107.584 64.9551 104.832 65.2037 102.316 65.7069L102.708 67.6681ZM110.568 66.9551C113.118 66.9551 115.644 67.2854 118.15 67.9473L118.661 66.0136C115.991 65.3084 113.293 64.9551 110.568 64.9551V66.9551ZM118.154 67.9485C120.645 68.5942 122.852 69.744 124.786 71.4018L126.087 69.8833C123.92 68.0255 121.439 66.734 118.656 66.0125L118.154 67.9485ZM124.795 71.4093C126.75 73.0462 128.348 75.2979 129.568 78.207L131.412 77.4336C130.093 74.2881 128.323 71.7546 126.078 69.8758L124.795 71.4093ZM129.573 78.2196C130.819 81.0809 131.468 84.7663 131.468 89.3193H133.468C133.468 84.595 132.798 80.6144 131.407 77.421L129.573 78.2196ZM131.468 89.3193V134.876H133.468V89.3193H131.468ZM131.468 134.876C131.468 136.202 131.773 137.389 132.449 138.372L134.097 137.239C133.7 136.66 133.468 135.894 133.468 134.876H131.468ZM132.473 138.406C133.139 139.294 133.968 140.037 134.949 140.636L135.992 138.93C135.215 138.455 134.579 137.88 134.073 137.206L132.473 138.406ZM134.97 140.649C135.964 141.224 137.077 141.715 138.304 142.123L138.936 140.226C137.819 139.854 136.833 139.416 135.972 138.918L134.97 140.649ZM138.34 142.135C139.507 142.475 140.723 142.84 141.988 143.229L142.576 141.318C141.302 140.926 140.077 140.558 138.9 140.215L138.34 142.135ZM141.346 141.922L140.687 143.68L142.559 144.382L143.219 142.625L141.346 141.922ZM141.833 143.053C139 142.447 135.284 142.152 130.71 142.152V144.152C135.218 144.152 138.777 144.444 141.414 145.009L141.833 143.053ZM130.71 142.152C127.838 142.152 124.519 142.555 120.763 143.346L121.175 145.303C124.841 144.531 128.016 144.152 130.71 144.152V142.152ZM121.826 143.81L121.387 143.077L119.672 144.106L120.111 144.839L121.826 143.81ZM121.353 144.16C121.951 143.292 122.353 142.14 122.611 140.774C122.87 139.399 122.994 137.746 122.994 135.828H120.994C120.994 137.67 120.874 139.19 120.645 140.403C120.415 141.626 120.084 142.476 119.706 143.024L121.353 144.16ZM122.994 135.828V92.0293H120.994V135.828H122.994ZM122.994 92.0293C122.994 87.8749 122.6 84.4228 121.78 81.7061L119.865 82.2841C120.607 84.7432 120.994 87.9806 120.994 92.0293H122.994ZM121.781 81.711C120.971 78.9781 119.835 76.7727 118.331 75.1605L116.869 76.5251C118.098 77.8425 119.111 79.7387 119.863 82.2792L121.781 81.711ZM118.354 75.186C116.923 73.5437 115.21 72.3872 113.221 71.7421L112.604 73.6446C114.228 74.1714 115.639 75.1145 116.846 76.4996L118.354 75.186ZM113.228 71.7447C111.361 71.1221 109.373 70.8145 107.272 70.8145V72.8145C109.176 72.8145 110.948 73.0927 112.596 73.642L113.228 71.7447ZM107.272 70.8145C104.771 70.8145 102.409 71.0396 100.187 71.4939L100.588 73.4533C102.664 73.0288 104.891 72.8145 107.272 72.8145V70.8145ZM100.183 71.4948C98.0119 71.9492 95.8238 72.6544 93.6192 73.6064L94.4121 75.4425C96.5044 74.539 98.5643 73.8769 100.593 73.4524L100.183 71.4948ZM93.6295 73.602C91.4745 74.5041 89.2786 75.6528 87.042 77.0445L88.0986 78.7426C90.2566 77.3999 92.3576 76.3026 94.4018 75.4469L93.6295 73.602ZM87.0558 77.0361C84.8321 78.3703 82.442 79.9476 79.8861 81.7663L81.0456 83.3958C83.5678 81.6012 85.914 80.0535 88.0848 78.751L87.0558 77.0361ZM79.4658 82.5811V133.118H81.4658V82.5811H79.4658ZM79.4658 133.118C79.4658 134.723 79.5902 136.082 79.8619 137.169L81.8022 136.684C81.5856 135.818 81.4658 134.639 81.4658 133.118H79.4658ZM79.865 137.181C80.1659 138.325 80.8023 139.285 81.7395 140.047L83.0007 138.494C82.3755 137.986 81.9865 137.384 81.7991 136.672L79.865 137.181ZM81.7395 140.047C82.6445 140.782 83.8621 141.391 85.34 141.9L85.992 140.01C84.6379 139.543 83.6582 139.029 83.0007 138.494L81.7395 140.047ZM85.34 141.9C86.7923 142.401 88.6769 142.946 90.985 143.535L91.4798 141.597C89.1981 141.015 87.3718 140.485 85.992 140.01L85.34 141.9ZM90.2837 142.25L89.6978 144.008L91.5952 144.64L92.1811 142.883L90.2837 142.25ZM90.7831 143.334C87.9429 142.942 85.512 142.647 83.4926 142.45L83.2984 144.441C85.283 144.634 87.686 144.925 90.5098 145.315L90.7831 143.334ZM83.495 142.45C81.5261 142.253 79.9024 142.152 78.6348 142.152V144.152C79.8085 144.152 81.3587 144.247 83.296 144.44L83.495 142.45ZM78.6348 142.152C75.7626 142.152 72.4437 142.555 68.6875 143.346L69.0996 145.303C72.7653 144.531 75.9406 144.152 78.6348 144.152V142.152ZM69.751 143.81L69.3116 143.077L67.5966 144.106L68.0361 144.839L69.751 143.81ZM69.2773 144.16C69.8756 143.292 70.2778 142.14 70.5354 140.774C70.7948 139.399 70.9189 137.746 70.9189 135.828H68.9189C68.9189 137.67 68.799 139.19 68.5701 140.403C68.3394 141.626 68.0092 142.476 67.6309 143.024L69.2773 144.16ZM70.9189 135.828V88.8799H68.9189V135.828H70.9189Z" fill="#B8AAA7" mask="url(#path-2-outside-1_10_243)"/>
</svg>
