<svg width="44" height="44" viewBox="0 0 44 44" fill="none" xmlns="http://www.w3.org/2000/svg">
<path d="M14.7947 22.9963L30.1204 37.5988C30.3762 37.8425 30.7159 37.9785 31.0692 37.9785C31.4225 37.9785 31.7622 37.8425 32.0179 37.5988L32.0344 37.5823C32.1588 37.4641 32.2579 37.3218 32.3256 37.1642C32.3933 37.0065 32.4282 36.8367 32.4282 36.6651C32.4282 36.4935 32.3933 36.3238 32.3256 36.1661C32.2579 36.0084 32.1588 35.8662 32.0344 35.748L17.6024 21.998L32.0344 8.2535C32.1588 8.13533 32.2579 7.99308 32.3256 7.83541C32.3933 7.67775 32.4282 7.50796 32.4282 7.33638C32.4282 7.1648 32.3933 6.99501 32.3256 6.83735C32.2579 6.67968 32.1588 6.53743 32.0344 6.41925L32.0179 6.40275C31.7622 6.15898 31.4225 6.02299 31.0692 6.02299C30.7159 6.02299 30.3762 6.15898 30.1204 6.40275L14.7947 21.0053C14.6599 21.1337 14.5526 21.2881 14.4793 21.4592C14.406 21.6304 14.3682 21.8146 14.3682 22.0008C14.3682 22.1869 14.406 22.3711 14.4793 22.5423C14.5526 22.7134 14.6599 22.8678 14.7947 22.9963Z" fill="#B8AAA7"/>
</svg>
