<svg width="20" height="20" viewBox="0 0 20 20" fill="none" xmlns="http://www.w3.org/2000/svg">
<path d="M1.06821 0.183275C1.0101 0.12517 0.941119 0.0790781 0.8652 0.0476317C0.789282 0.0161853 0.707913 6.12239e-10 0.62574 0C0.543567 -6.12239e-10 0.462198 0.0161853 0.38628 0.0476317C0.310361 0.0790781 0.24138 0.12517 0.183275 0.183275C0.12517 0.24138 0.0790781 0.310361 0.0476317 0.38628C0.0161853 0.462198 -6.12239e-10 0.543567 0 0.62574C6.12239e-10 0.707913 0.0161853 0.789282 0.0476317 0.8652C0.0790781 0.941119 0.12517 1.0101 0.183275 1.06821L4.55793 5.44036C2.3916 6.91844 0.883348 9.17947 0.350762 11.7474C0.33402 11.8278 0.333283 11.9107 0.348594 11.9914C0.363904 12.0722 0.394963 12.1491 0.439996 12.2178C0.485029 12.2865 0.543154 12.3456 0.611053 12.3919C0.678952 12.4381 0.755295 12.4706 0.835724 12.4873C0.916152 12.504 0.99909 12.5048 1.0798 12.4895C1.16052 12.4742 1.23742 12.4431 1.30613 12.3981C1.37484 12.353 1.43401 12.2949 1.48026 12.227C1.5265 12.1591 1.55892 12.0828 1.57567 12.0023C1.81477 10.8484 2.28131 9.75362 2.94807 8.78191C3.61483 7.81021 4.46845 6.98104 5.45911 6.34279L7.44145 8.32513C6.92746 8.69576 6.50012 9.17364 6.189 9.72569C5.87788 10.2777 5.69041 10.8908 5.63956 11.5225C5.58871 12.1541 5.67569 12.7892 5.89448 13.384C6.11328 13.9787 6.45867 14.5188 6.90675 14.9668C7.35484 15.4149 7.89492 15.7603 8.48964 15.9791C9.08436 16.1979 9.71951 16.2849 10.3512 16.234C10.9828 16.1832 11.5959 15.9957 12.1479 15.6846C12.7 15.3735 13.1778 14.9461 13.5485 14.4321L18.9318 19.8167C19.0491 19.9341 19.2083 20 19.3743 20C19.5402 20 19.6994 19.9341 19.8167 19.8167C19.9341 19.6994 20 19.5402 20 19.3743C20 19.2083 19.9341 19.0491 19.8167 18.9318L1.06821 0.183275ZM12.6485 13.5322C12.3991 13.9302 12.0631 14.2669 11.6656 14.5171C11.2681 14.7674 10.8192 14.9248 10.3525 14.9776C9.88573 15.0305 9.41307 14.9775 8.96965 14.8224C8.52624 14.6674 8.12348 14.4144 7.79133 14.0823C7.45918 13.7501 7.20619 13.3474 7.05117 12.9039C6.89615 12.4605 6.8431 11.9879 6.89595 11.5211C6.94881 11.0544 7.10622 10.6056 7.35647 10.208C7.60672 9.81051 7.94337 9.47452 8.34138 9.22506L12.6485 13.5322ZM10.155 7.5027L14.3722 11.7199C14.333 10.6139 13.8761 9.56381 13.0936 8.78127C12.311 7.99872 11.261 7.54185 10.155 7.5027ZM10 5.00039C9.28756 5.00039 8.58886 5.09289 7.91766 5.26662L6.91399 4.26295C7.90783 3.92498 8.95027 3.75187 10 3.75049C14.6159 3.75049 18.6768 7.09148 19.6492 11.7474C19.6831 11.9098 19.651 12.079 19.56 12.2178C19.4691 12.3565 19.3267 12.4535 19.1643 12.4873C19.0018 12.5211 18.8326 12.489 18.6939 12.3981C18.5551 12.3071 18.4581 12.1648 18.4243 12.0023C17.5719 7.90892 14.0084 5.00039 10 5.00039Z" fill="#7B7B7B"/>
</svg>
