<svg width="36" height="38" viewBox="0 0 36 38" fill="none" xmlns="http://www.w3.org/2000/svg">
<path d="M17.8375 29.3708L17.6911 29.5292L17.5301 29.3708C10.5769 22.5467 5.98041 18.0342 5.98041 13.4583C5.98041 10.2917 8.17616 7.91667 11.1038 7.91667C13.3581 7.91667 15.9345 9.81667 17.3983 12.0333L17.6911 12.35C18.6719 10.1967 22.0241 7.91667 24.2784 7.91667C27.206 7.91667 29.4018 10.2917 29.4018 13.4583C29.4018 18.0342 24.8053 22.5467 17.8375 29.3708ZM24.2784 4.75C21.7313 4.75 19.2867 6.0325 17.6911 8.04333C16.0955 6.0325 13.6509 4.75 11.1038 4.75C6.59522 4.75 3.05273 8.56583 3.05273 13.4583C3.05273 19.4275 8.02978 24.32 15.5685 31.7142L17.6911 33.8042L19.8137 31.7142C27.3524 24.32 32.3295 19.4275 32.3295 13.4583C32.3295 8.56583 28.787 4.75 24.2784 4.75Z" fill="#FFA2A4"/>
</svg>
