<svg width="121" height="41" viewBox="0 0 121 41" fill="none" xmlns="http://www.w3.org/2000/svg">
<path d="M4.40332 6.96094C4.81283 6.91667 5.15039 7.15462 5.41602 7.6748L11.4092 18.7314C14.9066 13.2751 16.8766 9.97689 17.3193 8.83691C17.4632 8.42741 17.3359 8.10645 16.9375 7.87402C16.5391 7.63053 15.875 7.46452 14.9453 7.37598L14.8789 7.06055C16.8711 6.8724 18.3542 6.92773 19.3281 7.22656C19.5052 7.3151 19.5495 7.45345 19.4609 7.6416C19.2728 8.0179 19.068 8.41081 18.8467 8.82031C18.6253 9.21875 16.3952 12.8158 12.1562 19.6113V28.0117C12.1562 28.9082 12.3333 29.5612 12.6875 29.9707C13.0527 30.3802 13.7445 30.679 14.7627 30.8672L14.6299 31.2656C13.4014 31.0996 12.4661 31.0111 11.8242 31C11.1823 30.9889 10.3633 31.0775 9.36719 31.2656L9.26758 31.0996C9.48893 30.7786 9.59961 30.1921 9.59961 29.3398V20.2588L4.33691 10.7295C3.89421 9.98796 3.5013 9.45671 3.1582 9.13574C2.8151 8.81478 2.4554 8.63216 2.0791 8.58789C1.7028 8.53255 1.25456 8.54362 0.734375 8.62109L0.485352 8.32227C2.1123 7.50326 3.41829 7.04948 4.40332 6.96094ZM26.0684 8.83691V23.9941C26.0684 25.2116 26.1846 26.2298 26.417 27.0488C26.6494 27.8568 26.9704 28.5042 27.3799 28.9912C27.8005 29.4782 28.2985 29.8268 28.874 30.0371C29.4606 30.2363 30.1025 30.3359 30.7998 30.3359C31.4639 30.3359 32.1501 30.2474 32.8584 30.0703C33.5778 29.8822 34.2917 29.6276 35 29.3066C35.7194 28.9746 36.4167 28.5872 37.0918 28.1445C37.778 27.6908 38.4199 27.2038 39.0176 26.6836V11.8916C39.0176 11.1611 38.9844 10.5524 38.918 10.0654C38.8516 9.56738 38.7298 9.16895 38.5527 8.87012C38.3757 8.57129 38.1266 8.361 37.8057 8.23926C37.4847 8.10645 37.1416 8.04004 36.7764 8.04004C36.4111 8.04004 36.1842 8.04557 36.0957 8.05664L36.0293 7.74121C37.8333 7.19889 39.5654 6.92773 41.2256 6.92773C41.458 7.51432 41.5742 8.15072 41.5742 8.83691V28.0117C41.5742 28.4655 41.613 28.8529 41.6904 29.1738C41.779 29.4948 41.9229 29.766 42.1221 29.9873C42.3213 30.2087 42.5869 30.3913 42.9189 30.5352C43.262 30.668 43.6882 30.7786 44.1973 30.8672L44.0479 31.2656C43.3838 31.1771 42.8083 31.1107 42.3213 31.0664C41.8343 31.0221 41.4248 31 41.0928 31C40.7829 31 40.4342 31.0221 40.0469 31.0664C39.6706 31.1107 39.25 31.1771 38.7852 31.2656L38.6855 31.0996C38.9069 30.7786 39.0176 30.1921 39.0176 29.3398V27.9785C37.1914 29.2845 35.5368 30.2308 34.0537 30.8174C32.5817 31.3929 31.2038 31.6807 29.9199 31.6807C29.1562 31.6807 28.3926 31.5921 27.6289 31.415C26.8652 31.238 26.179 30.9336 25.5703 30.502C24.9616 30.0703 24.4635 29.5003 24.0762 28.792C23.6999 28.0726 23.5117 27.1761 23.5117 26.1025V11.8916C23.5117 11.1611 23.4785 10.5524 23.4121 10.0654C23.3457 9.56738 23.224 9.16895 23.0469 8.87012C22.8698 8.57129 22.6208 8.361 22.2998 8.23926C21.9788 8.10645 21.6357 8.04004 21.2705 8.04004C20.9053 8.04004 20.6784 8.04557 20.5898 8.05664L20.5234 7.74121C22.3275 7.19889 24.0651 6.92773 25.7363 6.92773C25.9577 7.55859 26.0684 8.19499 26.0684 8.83691ZM57.5781 7.99023C57.9544 7.75781 58.3861 7.3151 58.873 6.66211H59.0391L68.1865 28.6924C68.596 29.6774 69.4316 30.3691 70.6934 30.7676V31.0664C69.974 30.9889 69.1107 30.9723 68.1035 31.0166C67.0964 31.0719 66.2054 31.166 65.4307 31.2988L65.2979 31.1328C65.5192 30.8451 65.569 30.3636 65.4473 29.6885C65.3366 29.0133 64.999 27.9896 64.4346 26.6172L61.6953 19.7441C58.4414 19.6888 55.752 19.6999 53.627 19.7773L49.792 28.6924C49.5596 29.2015 49.6426 29.6276 50.041 29.9707C50.4505 30.3138 51.2474 30.6016 52.4316 30.834L52.3652 31.1328C50.4395 30.9889 48.8678 30.9447 47.6504 31C47.584 30.9336 47.512 30.8229 47.4346 30.668L57.5781 7.99023ZM54.0752 18.7979C55.68 18.8421 58.0817 18.8421 61.2803 18.7979L57.8105 10.1318L54.0752 18.7979ZM91.3125 28.8916V26.1689C91.3125 24.6084 91.1243 23.5625 90.748 23.0312C90.3717 22.4889 89.5804 22.2565 88.374 22.334L88.3076 22.0186C90.1338 21.4762 91.8714 21.2051 93.5205 21.2051C93.7419 21.8138 93.8525 22.4502 93.8525 23.1143V27.8789C93.8525 28.9193 93.9577 29.5833 94.168 29.8711L94.0684 30.0537C93.194 30.0537 92.2477 30.1921 91.2295 30.4688C90.2113 30.7344 89.1211 31 87.959 31.2656C86.7969 31.5423 85.6126 31.6807 84.4062 31.6807C82.735 31.6807 81.18 31.3763 79.7412 30.7676C78.3024 30.1478 77.0628 29.29 76.0225 28.1943C74.9932 27.0986 74.1797 25.7484 73.582 24.1436C72.9954 22.5387 72.7021 20.79 72.7021 18.8975C72.7021 17.1598 72.9346 15.5827 73.3994 14.166C73.8753 12.7383 74.5173 11.5374 75.3252 10.5635C76.1442 9.58952 77.1237 8.77051 78.2637 8.10645C79.4036 7.43132 80.6266 6.94434 81.9326 6.64551C83.2497 6.33561 84.6497 6.18066 86.1328 6.18066C88.6673 6.18066 91.0469 6.70085 93.2715 7.74121C92.8841 9.12467 92.3307 10.5856 91.6113 12.124L91.1631 11.958C91.3402 10.641 91.3789 9.55632 91.2793 8.7041C90.7923 8.42741 90.3109 8.20052 89.835 8.02344C89.359 7.83529 88.8555 7.69141 88.3242 7.5918C87.793 7.48112 87.2174 7.40918 86.5977 7.37598C85.9889 7.33171 85.3027 7.30957 84.5391 7.30957C83.5208 7.30957 82.569 7.44238 81.6836 7.70801C80.8092 7.96257 79.9902 8.38867 79.2266 8.98633C78.4629 9.58398 77.8099 10.3366 77.2676 11.2441C76.7253 12.1406 76.2992 13.264 75.9893 14.6143C75.6794 15.9535 75.5244 17.4697 75.5244 19.1631C75.5244 20.79 75.8011 22.3229 76.3545 23.7617C76.9079 25.2005 77.6383 26.4124 78.5459 27.3975C79.4645 28.3825 80.5215 29.1628 81.7168 29.7383C82.9121 30.3027 84.1462 30.585 85.4189 30.585C86.6807 30.585 87.7376 30.4743 88.5898 30.2529C89.4531 30.0205 90.3607 29.5667 91.3125 28.8916ZM107.217 7.99023C107.593 7.75781 108.025 7.3151 108.512 6.66211H108.678L117.825 28.6924C118.235 29.6774 119.07 30.3691 120.332 30.7676V31.0664C119.613 30.9889 118.749 30.9723 117.742 31.0166C116.735 31.0719 115.844 31.166 115.069 31.2988L114.937 31.1328C115.158 30.8451 115.208 30.3636 115.086 29.6885C114.975 29.0133 114.638 27.9896 114.073 26.6172L111.334 19.7441C108.08 19.6888 105.391 19.6999 103.266 19.7773L99.4307 28.6924C99.1982 29.2015 99.2812 29.6276 99.6797 29.9707C100.089 30.3138 100.886 30.6016 102.07 30.834L102.004 31.1328C100.078 30.9889 98.5065 30.9447 97.2891 31C97.2227 30.9336 97.1507 30.8229 97.0732 30.668L107.217 7.99023ZM103.714 18.7979C105.319 18.8421 107.72 18.8421 110.919 18.7979L107.449 10.1318L103.714 18.7979Z" fill="black"/>
</svg>
