<svg width="24" height="25" viewBox="0 0 24 25" fill="none" xmlns="http://www.w3.org/2000/svg">
<path d="M5 5.70312H11C11.55 5.70312 12 5.25312 12 4.70312C12 4.15312 11.55 3.70312 11 3.70312H5C3.9 3.70312 3 4.60312 3 5.70312V19.7031C3 20.8031 3.9 21.7031 5 21.7031H11C11.55 21.7031 12 21.2531 12 20.7031C12 20.1531 11.55 19.7031 11 19.7031H5V5.70312Z" fill="#D5D5D5"/>
<path d="M20.65 12.3537L17.86 9.56365C17.7905 9.4922 17.7012 9.44313 17.6036 9.42272C17.506 9.40231 17.4045 9.41148 17.3121 9.44907C17.2198 9.48665 17.1408 9.55094 17.0851 9.63371C17.0295 9.71647 16.9999 9.81394 17 9.91365V11.7037H10C9.45 11.7037 9 12.1537 9 12.7037C9 13.2537 9.45 13.7037 10 13.7037H17V15.4937C17 15.9437 17.54 16.1637 17.85 15.8437L20.64 13.0537C20.84 12.8637 20.84 12.5437 20.65 12.3537Z" fill="#D5D5D5"/>
</svg>
