<svg width="20" height="20" viewBox="0 0 20 20" fill="none" xmlns="http://www.w3.org/2000/svg">
<path fill-rule="evenodd" clip-rule="evenodd" d="M16.196 1.52918C16.321 1.40419 16.4905 1.33398 16.6673 1.33398C16.8441 1.33398 17.0136 1.40419 17.1386 1.52918L19.8053 4.19584C19.8674 4.25777 19.9166 4.33134 19.9503 4.41233C19.9839 4.49332 20.0012 4.58015 20.0012 4.66784C20.0012 4.75553 19.9839 4.84236 19.9503 4.92335C19.9166 5.00435 19.8674 5.07791 19.8053 5.13984L14.5493 10.3958C14.448 10.4975 14.3309 10.5822 14.2026 10.6465L8.96664 13.2638C8.84159 13.3263 8.70009 13.3478 8.56213 13.3254C8.42418 13.303 8.29675 13.2379 8.19785 13.1391C8.09895 13.0404 8.03359 12.913 8.011 12.7751C7.98841 12.6372 8.00974 12.4956 8.07197 12.3705L10.6893 7.13318C10.7537 7.00488 10.8383 6.88782 10.94 6.78651L16.196 1.52918ZM16.668 2.94384L11.8813 7.73051L10.4986 10.4985L10.8373 10.8372L13.6066 9.45318L18.392 4.66784L16.668 2.94384ZM13.3346 2.66784L12.0013 4.00118H6.53464C5.96397 4.00118 5.57464 4.00118 5.27597 4.02651C4.98264 4.05051 4.8333 4.09317 4.7293 4.14651C4.47843 4.27434 4.27446 4.4783 4.14664 4.72918C4.0933 4.83317 4.05064 4.98251 4.02664 5.27584C4.0013 5.57451 4.0013 5.96384 4.0013 6.53451V14.8012C4.0013 15.3718 4.0013 15.7612 4.02664 16.0598C4.05064 16.3532 4.0933 16.5025 4.14664 16.6065C4.27446 16.8574 4.47843 17.0613 4.7293 17.1892C4.8333 17.2425 4.98264 17.2852 5.27597 17.3092C5.57597 17.3345 5.96397 17.3345 6.53464 17.3345H14.8013C15.372 17.3345 15.7613 17.3345 16.06 17.3092C16.3533 17.2852 16.5026 17.2425 16.6066 17.1892C16.8575 17.0613 17.0615 16.8574 17.1893 16.6065C17.2426 16.5025 17.2853 16.3532 17.3093 16.0598C17.3346 15.7598 17.3346 15.3718 17.3346 14.8012V9.33451L18.668 8.00117V14.8278C18.668 15.3652 18.668 15.8078 18.6386 16.1692C18.608 16.5438 18.5426 16.8892 18.3773 17.2118C18.1216 17.7136 17.7137 18.1215 17.212 18.3772C16.888 18.5425 16.544 18.6078 16.1693 18.6385C15.8093 18.6678 15.3653 18.6678 14.8293 18.6678H6.50797C5.97064 18.6678 5.52797 18.6678 5.16664 18.6385C4.79197 18.6078 4.44664 18.5425 4.12397 18.3772C3.62223 18.1215 3.21429 17.7136 2.95864 17.2118C2.7933 16.8878 2.72797 16.5438 2.6973 16.1692C2.66797 15.8092 2.66797 15.3652 2.66797 14.8278V6.50784C2.66797 5.97051 2.66797 5.52784 2.6973 5.16651C2.72797 4.79184 2.7933 4.44651 2.95864 4.12384C3.21429 3.6221 3.62223 3.21417 4.12397 2.95851C4.44797 2.79318 4.79197 2.72784 5.16664 2.69718C5.52664 2.66784 5.97064 2.66784 6.50797 2.66784H13.3346Z" fill="#7B7B7B"/>
</svg>
