<svg width="139" height="139" viewBox="0 0 139 139" fill="none" xmlns="http://www.w3.org/2000/svg">
<circle cx="69.5" cy="69.5" r="68.3544" fill="#E5E0DD" stroke="#B8AAA7" stroke-width="1.70886"/>
<path d="M50.8661 35.31C52.0359 35.1835 53.0001 35.8633 53.7589 37.3492L70.8786 68.9329C80.8691 53.3466 86.4966 43.9252 87.7612 40.6688C88.1722 39.499 87.8086 38.5822 86.6705 37.9183C85.5323 37.2227 83.6354 36.7485 80.9797 36.4956L80.79 35.5945C86.4808 35.0571 90.7172 35.2152 93.4994 36.0688C94.0052 36.3217 94.1317 36.7169 93.8788 37.2544C93.3413 38.3293 92.7564 39.4516 92.1241 40.6214C91.4918 41.7595 85.1213 52.0345 73.0126 71.4463V95.4424C73.0126 98.0032 73.5185 99.8685 74.5302 101.038C75.5735 102.208 77.5494 103.062 80.4581 103.599L80.0787 104.737C76.5694 104.263 73.8979 104.01 72.0642 103.979C70.2305 103.947 67.891 104.2 65.0456 104.737L64.761 104.263C65.3934 103.346 65.7095 101.671 65.7095 99.2362V73.2958L50.6764 46.075C49.4118 43.9568 48.2895 42.4393 47.3094 41.5224C46.3293 40.6056 45.3018 40.0839 44.2269 39.9575C43.152 39.7994 41.8715 39.831 40.3856 40.0523L39.6743 39.1987C44.3217 36.8592 48.0523 35.5629 50.8661 35.31Z" fill="black"/>
</svg>
