<svg width="37" height="37" viewBox="0 0 37 37" fill="none" xmlns="http://www.w3.org/2000/svg">
<path d="M14.3047 24.0693C11.5797 24.0693 9.27369 23.1253 7.38669 21.2373C5.49969 19.3493 4.55569 17.0433 4.55469 14.3193C4.55369 11.5953 5.49769 9.28934 7.38669 7.40134C9.27569 5.51334 11.5817 4.56934 14.3047 4.56934C17.0277 4.56934 19.3342 5.51334 21.2242 7.40134C23.1142 9.28934 24.0577 11.5953 24.0547 14.3193C24.0547 15.4193 23.8797 16.4568 23.5297 17.4318C23.1797 18.4068 22.7047 19.2693 22.1047 20.0193L30.5047 28.4193C30.7797 28.6943 30.9172 29.0443 30.9172 29.4693C30.9172 29.8943 30.7797 30.2443 30.5047 30.5193C30.2297 30.7943 29.8797 30.9318 29.4547 30.9318C29.0297 30.9318 28.6797 30.7943 28.4047 30.5193L20.0047 22.1193C19.2547 22.7193 18.3922 23.1943 17.4172 23.5443C16.4422 23.8943 15.4047 24.0693 14.3047 24.0693ZM14.3047 21.0693C16.1797 21.0693 17.7737 20.4133 19.0867 19.1013C20.3997 17.7893 21.0557 16.1953 21.0547 14.3193C21.0537 12.4433 20.3977 10.8498 19.0867 9.53884C17.7757 8.22784 16.1817 7.57134 14.3047 7.56934C12.4277 7.56734 10.8342 8.22384 9.52419 9.53884C8.21419 10.8538 7.55769 12.4473 7.55469 14.3193C7.55169 16.1913 8.20819 17.7853 9.52419 19.1013C10.8402 20.4173 12.4337 21.0733 14.3047 21.0693Z" fill="#B8AAA7"/>
</svg>
