<svg width="152" height="111" viewBox="0 0 152 111" fill="none" xmlns="http://www.w3.org/2000/svg">
<path fill-rule="evenodd" clip-rule="evenodd" d="M7.79122 108.536L7.33594 109.634C8.73735 110.215 10.274 110.536 11.8856 110.536H18.2723V109.348V108.159H11.8856C10.592 108.159 9.36433 107.902 8.24651 107.438L7.79122 108.536ZM133.233 109.348V110.536H139.619C141.231 110.536 142.768 110.215 144.169 109.634L143.714 108.536L143.258 107.438C142.141 107.902 140.913 108.159 139.619 108.159H133.233V109.348ZM150.316 17.3084H151.505V11.8856C151.505 10.274 151.184 8.73734 150.603 7.33593L149.505 7.79122L148.407 8.2465C148.871 9.36433 149.128 10.5919 149.128 11.8856V17.3084H150.316ZM11.8856 0H18.2723V1.18856V2.37712H11.8856C10.5919 2.37712 9.36433 2.63415 8.2465 3.09769L7.79122 1.99979L7.33594 0.901884C8.73734 0.320746 10.274 0 11.8856 0ZM1.18856 93.2277H0V98.6505C0 100.262 0.320747 101.799 0.901888 103.2L1.99979 102.745L3.09769 102.29C2.63415 101.172 2.37712 99.9441 2.37712 98.6505V93.2277H1.18856ZM1.18856 82.3821H0V71.5364H1.18856H2.37712V82.3821H1.18856ZM1.18856 60.6908H0V49.8452H1.18856H2.37712V60.6908H1.18856ZM1.18856 38.9996H0V28.154H1.18856H2.37712V38.9996H1.18856ZM1.18856 17.3084H0V11.8856C0 10.274 0.320747 8.73733 0.901885 7.33593L1.99979 7.79121L3.09769 8.24649C2.63415 9.36432 2.37712 10.5919 2.37712 11.8856V17.3084H1.18856ZM31.0456 1.18856V0H43.819V1.18856V2.37712H31.0456V1.18856ZM56.5924 1.18856V0H69.3658V1.18856V2.37712H56.5924V1.18856ZM82.1391 1.18856V0H94.9125V1.18856V2.37712H82.1391V1.18856ZM107.686 1.18856V0H120.459V1.18856V2.37712H107.686V1.18856ZM133.233 1.18856V0H139.619C141.231 0 142.768 0.320746 144.169 0.901884L143.714 1.99979L143.258 3.09769C142.141 2.63415 140.913 2.37712 139.619 2.37712H133.233V1.18856ZM150.316 28.154H151.505V38.9996H150.316H149.128V28.154H150.316ZM150.316 49.8452H151.505V60.6908H150.316H149.128V49.8452H150.316ZM150.316 71.5365H151.505V82.3821H150.316H149.128V71.5365H150.316ZM150.316 93.2277H151.505V98.6505C151.505 100.262 151.184 101.799 150.603 103.2L149.505 102.745L148.407 102.29C148.871 101.172 149.128 99.9441 149.128 98.6505V93.2277H150.316ZM120.459 109.348V110.536H107.686V109.348V108.159H120.459V109.348ZM94.9125 109.348V110.536H82.1391V109.348V108.159H94.9125V109.348ZM69.3658 109.348V110.536H56.5924V109.348V108.159H69.3658V109.348ZM43.819 109.348V110.536H31.0457V109.348V108.159H43.819V109.348ZM78.658 57.8845H93.1828C93.9532 57.8845 94.6921 57.5784 95.2369 57.0335C95.7817 56.4885 96.0877 55.7495 96.0877 54.9788C96.0877 54.2082 95.7817 53.4691 95.2369 52.9242C94.6921 52.3793 93.9532 52.0732 93.1828 52.0732H78.658V37.5449C78.658 36.7742 78.3519 36.0352 77.8071 35.4903C77.2623 34.9453 76.5235 34.6392 75.753 34.6392C74.9826 34.6392 74.2437 34.9453 73.6989 35.4903C73.1541 36.0352 72.8481 36.7742 72.8481 37.5449V52.0732H58.3232C57.5528 52.0732 56.8139 52.3793 56.2691 52.9242C55.7243 53.4691 55.4183 54.2082 55.4183 54.9788C55.4183 55.7495 55.7243 56.4885 56.2691 57.0335C56.8139 57.5784 57.5528 57.8845 58.3232 57.8845H72.8481V72.4128C72.8481 73.1834 73.1541 73.9225 73.6989 74.4674C74.2437 75.0123 74.9826 75.3185 75.753 75.3185C76.5235 75.3185 77.2623 75.0123 77.8071 74.4674C78.3519 73.9225 78.658 73.1834 78.658 72.4128V57.8845Z" fill="#7B7B7B"/>
</svg>
